<svg xmlns="http://www.w3.org/2000/svg" viewBox="0 0 64 64" role="img" aria-label="Cruuz Management">
  <rect width="64" height="64" rx="12" fill="#ffffff"/>
  <path d="M14 39c10 3 18 3 28 0 4-1.2 7-1.6 10 .1-7.6 6.1-24.8 8.1-39.5 2.1L14 39Z" fill="#06295a"/>
  <path d="M11 46c9.8-2.8 16.5.9 25.4 1.3 6.7.3 11.4-1.1 17.6-4.2-5.5 7.6-18.5 10-30.8 6.3-4.9-1.5-8.4-2.1-12.2-1.1V46Z" fill="#06295a"/>
  <path d="M32.5 45.8c7.3-.1 13.5-1.7 21.2-6.2-5 8.2-12.1 11.5-22 10.8l.8-4.6Z" fill="#2aaa28"/>
  <path d="M18 35l7.2-10.7c1-1.5 2.7-2.3 4.5-2.2l14.4 1c2.1.1 4 1.3 5 3.2l3.1 5.9c.7 1.3-.2 2.8-1.7 2.8H18Z" fill="#06295a"/>
  <path d="M23 31h21.5l-1.8-3.2-12.4-.9-2.4 3.2H23Z" fill="#ffffff"/>
  <path d="M30.5 17h3v8h-3z" fill="#06295a"/>
  <path d="M29 17h8v2.7h-8z" fill="#06295a"/>
  <path d="M12 36C17.4 16 36.8 7.5 53 20.4 37.5 13.7 22.1 20.9 14.8 37.6L12 36Z" fill="#06295a"/>
  <path d="M34 18.7c8.2-3.3 15.9-.8 19.4 7.3-4.8-4.1-10.7-5.3-18.5-3.5L34 18.7Z" fill="#2aaa28"/>
</svg>
